<?xml version="1.0" encoding="UTF-8" standalone="no"?>
<!DOCTYPE svg PUBLIC "-//W3C//DTD SVG 1.1//EN" "http://www.w3.org/Graphics/SVG/1.1/DTD/svg11.dtd">
<svg width="100%" height="100%" viewBox="0 0 532 206" version="1.1" xmlns="http://www.w3.org/2000/svg" xmlns:xlink="http://www.w3.org/1999/xlink" xml:space="preserve" style="fill-rule:evenodd;clip-rule:evenodd;stroke-linejoin:round;stroke-miterlimit:1.41421;">
    <g id="Layer-1">
        <clipPath id="_clip1">
            <path d="M19.182,21.714c2.231,3.506 5.099,9.722 8.604,18.329c-22.468,88.936 -22.786,76.823 -22.786,93.24c0,15.619 22.946,17.532 34.1,17.532c3.665,0 6.057,-0.158 6.057,-0.158c-5.897,-12.273 -7.81,-27.256 -7.81,-41.919c0,-12.113 1.275,-24.067 2.551,-34.268c6.213,19.286 13.066,42.556 19.599,68.216c0.159,2.073 8.604,4.464 14.342,4.464c2.072,0 3.664,-0.319 4.461,-1.117c2.55,-20.879 7.968,-41.917 12.588,-57.856c1.913,27.733 6.375,56.103 18.803,77.462c-8.604,3.028 -17.846,5.259 -28.682,5.259c-9.083,0 -19.282,-1.593 -31.392,-5.737c-0.956,3.028 -1.594,6.375 -1.594,9.562c0,11.158 6.535,22.313 22.787,22.313c12.908,0 30.754,-9.402 48.921,-17.85c12.747,13.707 30.913,22.314 57.524,22.314c19.281,0 29.798,-10.837 29.798,-22.314c0,-13.229 -13.864,-27.414 -44.617,-27.414c-12.111,0 -22.15,2.709 -31.71,6.215c-10.995,-27.414 -10.995,-69.969 -10.995,-111.25l0,-20.242c-0.798,-4.304 -13.226,-9.722 -22.309,-9.722c-4.621,0 -8.286,1.434 -9.401,4.941c0.318,3.347 0.477,7.012 0.636,10.679c-8.126,45.425 -19.918,54.509 -19.918,54.509c0,0 -5.736,-7.65 -12.11,-61.841c-0.797,-6.217 -10.357,-10.201 -20.078,-10.201c-6.852,0 -13.704,2.072 -17.369,6.854Zm118.555,149.503c9.084,-3.666 17.688,-6.056 25.336,-6.056c12.908,0 18.166,6.534 18.166,12.59c0,5.419 -3.984,10.52 -10.358,10.52c-15.138,0 -25.654,-6.375 -33.144,-17.054Z"/>
        </clipPath>
        <g clip-path="url(#_clip1)">
            <path d="M207.053,14.86l0,186.64l-202.053,0l0,-186.64l202.053,0Z" style="fill:#a6a6a6;fill-rule:nonzero;"/>
        </g>
        <clipPath id="_clip2">
            <path d="M130.241,89.931c0,4.621 3.665,8.606 11.952,9.722c2.709,-7.65 6.213,-12.273 11.792,-12.273c7.329,0 10.038,5.579 10.835,13.23c-2.391,-0.478 -4.622,-0.638 -6.852,-0.638c-21.672,0 -32.986,15.938 -32.986,30.124c0,11.316 7.331,21.676 22.469,21.676c9.082,0 15.456,-4.622 19.6,-10.201c2.23,5.579 6.692,9.403 14.978,9.403c8.445,0 14.661,-5.896 14.661,-5.896c-10.996,-7.013 -13.226,-17.374 -13.226,-28.212c0,-8.287 1.434,-16.734 1.434,-24.067c0,-12.591 -3.984,-22.154 -25.656,-22.154c-17.209,0 -29.001,10.838 -29.001,19.286Zm17.847,39.686c0,-8.129 6.852,-20.56 17.05,-22.632l0,12.113c-2.709,12.272 -4.302,17.852 -11.153,17.852c-4.144,0 -5.897,-3.189 -5.897,-7.333Z"/>
        </clipPath>
        <g clip-path="url(#_clip2)">
            <path d="M196.69,70.645l0,81.127l-71.708,0l0,-81.127l71.708,0Z" style="fill:#a6a6a6;fill-rule:nonzero;"/>
        </g>
        <clipPath id="_clip3">
            <path d="M190.631,77.02c3.188,9.564 4.143,18.648 4.143,26.777c0,12.91 -2.39,23.429 -2.39,29.167c0,12.591 4.461,16.735 15.616,16.735c4.143,0 9.242,-0.477 15.297,-1.434c-5.258,-4.303 -6.852,-15.46 -6.852,-27.893c0,-10.997 1.116,-22.632 2.071,-31.557c1.435,-0.956 2.869,-1.435 4.303,-1.435c7.967,0 9.88,7.333 9.88,17.533c0,8.766 -1.434,19.445 -1.434,29.327c0,15.141 3.346,27.892 19.599,27.892c8.446,0 19.442,-9.404 19.442,-9.404c-14.183,-1.434 -17.529,-11.954 -17.529,-24.864c0,-11.475 2.549,-24.864 2.549,-35.861c0,-12.273 -3.187,-21.358 -16.891,-21.358c-4.62,0 -12.428,3.188 -19.281,9.882c0.16,-1.115 0.16,-2.072 0.16,-2.868c0,-5.739 -3.346,-7.492 -7.808,-7.492c-8.445,0 -20.875,6.853 -20.875,6.853Z"/>
        </clipPath>
        <g clip-path="url(#_clip3)">
            <path d="M270.306,70.167l0,91.965l-79.675,0l0,-91.965l79.675,0Z" style="fill:#a6a6a6;fill-rule:nonzero;"/>
        </g>
        <clipPath id="_clip4">
            <path d="M299.942,58.372c-48.125,-4.941 -56.092,-38.093 -57.526,-49.568c-14.022,7.491 -21.672,16.416 -21.672,24.864c0,14.822 40.475,31.399 77.923,32.196c-0.638,4.144 -1.116,8.606 -1.595,13.228c-3.026,-3.188 -7.49,-5.897 -12.906,-5.897c-19.123,0 -30.277,26.298 -30.277,48.293c0,15.779 5.737,29.486 18.484,29.486c6.853,0 14.661,-2.072 23.902,-19.285c2.232,13.389 7.97,30.283 18.487,30.283c8.921,0 20.236,-9.244 20.236,-9.244c-17.209,-4.303 -18.007,-33.471 -18.007,-53.075c0,-11.635 0.639,-23.908 1.913,-35.064c21.671,-3.507 38.88,-14.345 41.59,-36.5c0,-12.751 -7.807,-23.589 -22.628,-23.589c-13.543,0 -29.957,11.795 -37.924,53.872Zm30.595,-33.948c4.78,0 7.169,4.143 7.169,9.404c0,8.605 -6.372,20.719 -18.165,24.226c2.551,-19.127 6.535,-33.63 10.996,-33.63Zm-52.267,98.499c0,-12.909 5.577,-34.267 18.005,-35.702c-0.477,5.26 -0.795,10.998 -0.955,17.054c-2.391,19.922 -9.881,28.211 -14.023,28.211c-1.914,0 -3.027,-3.985 -3.027,-9.563Z"/>
        </clipPath>
        <g clip-path="url(#_clip4)">
            <path d="M360.494,4.5l0,157.472l-139.75,0l0,-157.472l139.75,0Z" style="fill:#a6a6a6;fill-rule:nonzero;"/>
        </g>
        <clipPath id="_clip5">
            <path d="M327.185,89.931c0,4.621 3.667,8.606 11.952,9.722c2.707,-7.65 6.214,-12.273 11.793,-12.273c7.328,0 10.037,5.579 10.835,13.23c-2.392,-0.478 -4.622,-0.638 -6.853,-0.638c-21.671,0 -32.985,15.938 -32.985,30.124c0,11.316 7.33,21.676 22.469,21.676c9.082,0 15.456,-4.622 19.598,-10.201c2.231,5.579 6.693,9.403 14.981,9.403c8.445,0 14.659,-5.896 14.659,-5.896c-10.996,-7.013 -13.226,-17.374 -13.226,-28.212c0,-8.287 1.435,-16.734 1.435,-24.067c0,-12.591 -3.984,-22.154 -25.655,-22.154c-17.211,0 -29.003,10.838 -29.003,19.286Zm17.847,39.686c0,-8.129 6.853,-20.56 17.051,-22.632l0,12.113c-2.71,12.272 -4.302,17.852 -11.153,17.852c-4.145,0 -5.898,-3.189 -5.898,-7.333Z"/>
        </clipPath>
        <g clip-path="url(#_clip5)">
            <path d="M393.634,70.645l0,81.127l-71.707,0l0,-81.127l71.707,0Z" style="fill:#a6a6a6;fill-rule:nonzero;"/>
        </g>
        <clipPath id="_clip6">
            <path d="M411.478,92.959l0,-10.679c0,-5.738 -3.347,-7.491 -7.808,-7.491c-8.446,0 -17.847,6.854 -17.847,6.854c3.665,8.606 4.621,15.141 4.621,24.226c0,12.113 -1.275,21.995 -1.275,29.167c0,11.795 6.692,14.663 14.661,14.663c4.301,0 8.763,-0.797 12.906,-1.594c-2.231,-2.55 -3.506,-6.056 -4.143,-10.36c-0.159,0.32 -0.796,-4.143 -0.796,-11.156c0,-19.125 4.303,-57.697 32.666,-57.697c8.285,0 12.748,-5.579 12.748,-12.591c0,-6.854 -4.143,-13.548 -12.748,-13.548c-19.918,0 -27.727,23.111 -32.985,50.206Zm18.006,-11.954c2.231,6.057 3.028,13.069 3.028,20.082c0,13.07 -2.551,26.777 -2.551,36.18c0,7.492 1.595,12.432 7.33,12.432c13.704,0 23.426,-3.666 23.426,-3.666c-7.33,-8.925 -9.401,-18.169 -9.401,-27.414c0,-11.315 4.619,-24.863 4.619,-33.47c0,-5.419 -1.753,-8.925 -7.487,-8.925c-7.651,0 -18.964,4.781 -18.964,4.781Z"/>
        </clipPath>
        <g clip-path="url(#_clip6)">
            <path d="M460.717,42.753l0,106.946l-74.894,0l0,-106.946l74.894,0Z" style="fill:#a6a6a6;fill-rule:nonzero;"/>
        </g>
        <clipPath id="_clip7">
            <path d="M459.276,77.02c3.188,9.564 4.145,18.648 4.145,26.777c0,12.91 -2.39,23.429 -2.39,29.167c0,12.591 4.462,16.735 15.615,16.735c4.143,0 9.242,-0.477 15.298,-1.434c-5.257,-4.303 -6.852,-15.46 -6.852,-27.893c0,-10.997 1.115,-22.632 2.071,-31.557c1.434,-0.956 2.868,-1.435 4.303,-1.435c7.808,0 10.038,5.579 10.038,13.548c0,9.404 -3.027,22.154 -3.027,32.514c0,9.882 3.347,18.17 13.546,18.17c7.648,0 14.977,-5.579 14.977,-5.579c-4.142,-3.187 -5.257,-9.403 -5.257,-17.054c0,-9.562 2.549,-22.951 2.549,-34.427c0,-13.069 -3.347,-23.907 -17.209,-23.907c-4.622,0 -12.429,3.188 -19.283,9.882c0.16,-1.115 0.16,-2.072 0.16,-2.868c0,-5.739 -3.347,-7.492 -7.808,-7.492c-8.446,0 -20.876,6.853 -20.876,6.853Z"/>
        </clipPath>
        <g clip-path="url(#_clip7)">
            <path d="M527,70.167l0,81.445l-67.724,0l0,-81.445l67.724,0Z" style="fill:#a6a6a6;fill-rule:nonzero;"/>
        </g>
    </g>
</svg>
